# xmcd
#
# Track frame offsets:
#	150
#	13638
#	30855
#	50880
#	66978
#	83445
#	98528
#	115153
#	133390
#	147663
#	161973
#	176208
#
# Disc length: 2507 seconds
#
# Revision: 3
# Processed by: cddbd v1.5.2PL0 Copyright (c) Steve Scherf et al.
# Submitted via: audiograbber 1.83.01
#
DISCID=a809c90c
DTITLE=Chris Isaak - San Francisco Days
DYEAR=1993
DGENRE=Pop
TTITLE0=San Francisco Days
TTITLE1=Beautiful Homes
TTITLE2=Round 'N' Round
TTITLE3=Two Hearts
TTITLE4=Can't Do A Thing (To Stop Me)
TTITLE5=Except The New Girl
TTITLE6=Waiting
TTITLE7=Move Along
TTITLE8=I Want Your Love
TTITLE9=5:15
TTITLE10=Lonely With A Broken Heart
TTITLE11=Solitary Man
EXTD=Label: Reprise Records\n9362-45116-2
EXTT0=
EXTT1=
EXTT2=
EXTT3=
EXTT4=
EXTT5=
EXTT6=
EXTT7=
EXTT8=
EXTT9=
EXTT10=
EXTT11=
PLAYORDER=
